<?xml version="1.0" standalone="no"?>
<!DOCTYPE svg PUBLIC "-//W3C//DTD SVG 20010904//EN"
 "http://www.w3.org/TR/2001/REC-SVG-20010904/DTD/svg10.dtd">
<svg version="1.0" xmlns="http://www.w3.org/2000/svg"
 width="383.000000pt" height="332.000000pt" viewBox="0 0 383.000000 332.000000"
 preserveAspectRatio="xMidYMid meet">

<g transform="translate(0.000000,332.000000) scale(0.100000,-0.100000)"
fill="#000000" stroke="none">
<path d="M1265 3258 c-11 -6 -27 -21 -35 -32 -19 -26 -225 -356 -417 -666 -80
-129 -160 -257 -178 -285 -18 -27 -67 -106 -110 -175 -42 -69 -87 -141 -100
-160 -29 -46 -147 -235 -160 -258 -5 -9 -35 -57 -65 -105 -30 -48 -60 -95 -65
-105 -6 -9 -23 -37 -39 -61 -49 -76 -47 -86 47 -281 395 -818 504 -1037 533
-1059 l27 -21 1186 0 c927 0 1191 3 1211 13 24 12 50 53 143 227 27 52 69 129
92 170 23 41 66 120 95 175 29 55 72 134 95 175 23 41 66 120 95 175 29 55 56
105 60 110 4 6 31 56 60 113 59 116 60 134 10 207 -16 24 -30 46 -30 50 0 3
-8 18 -19 33 -16 24 -87 136 -118 187 -13 22 -273 438 -340 544 -23 36 -57 91
-75 121 -29 48 -215 346 -258 415 -8 13 -75 120 -148 237 -153 245 -150 241
-179 256 -31 17 -1289 16 -1318 0z m1288 -205 c24 -38 52 -81 63 -98 10 -16
21 -35 24 -40 3 -6 30 -50 60 -98 30 -49 64 -103 75 -121 42 -69 138 -223 160
-256 31 -48 147 -235 163 -262 7 -13 25 -42 40 -65 22 -34 257 -409 305 -487
7 -10 45 -71 85 -135 40 -63 68 -117 63 -119 -11 -4 -52 8 -296 83 -60 18
-150 46 -200 60 -49 15 -137 42 -195 60 -58 19 -217 68 -355 110 -137 41 -260
79 -271 84 -12 5 -71 83 -131 173 -61 90 -150 222 -198 293 -118 174 -544 807
-573 850 l-22 35 580 0 580 0 43 -67z m-1218 -16 c4 -17 13 -54 20 -82 8 -27
26 -99 40 -160 14 -60 32 -135 40 -165 8 -30 33 -131 55 -225 23 -93 53 -215
67 -270 14 -55 29 -116 33 -135 4 -19 15 -66 24 -104 20 -81 21 -79 -67 -236
-32 -58 -63 -114 -68 -125 -5 -11 -13 -27 -19 -35 -11 -17 -88 -158 -144 -265
-20 -38 -41 -77 -46 -85 -13 -21 -89 -160 -140 -255 -65 -121 -93 -172 -144
-264 -25 -46 -46 -85 -46 -87 0 -2 -38 -71 -85 -155 -47 -83 -85 -155 -85
-160 0 -32 -27 12 -100 163 -46 95 -159 326 -250 513 -92 187 -175 357 -184
377 l-18 37 53 88 c28 49 68 113 88 143 20 31 41 64 48 75 14 25 268 430 305
488 15 23 33 52 40 65 12 21 116 189 163 262 121 192 161 255 164 264 2 6 18
31 36 56 17 25 44 68 60 95 45 76 47 79 94 154 24 39 47 69 51 66 5 -3 11 -20
15 -38z m639 -1170 c92 -142 137 -213 215 -332 39 -60 71 -115 71 -122 0 -10
-71 -13 -340 -13 -187 0 -340 3 -340 6 0 4 134 232 179 304 8 14 25 41 36 61
70 124 110 189 114 189 4 0 33 -42 65 -93z m1641 -557 c3 -5 -7 -33 -23 -62
-16 -29 -46 -84 -67 -123 -21 -38 -60 -109 -87 -158 -26 -48 -48 -88 -48 -90
0 -2 -27 -53 -61 -113 -34 -60 -84 -152 -111 -204 -28 -52 -54 -99 -58 -105
-4 -5 -33 -59 -65 -120 -31 -60 -60 -113 -64 -118 -4 -4 -506 -6 -1115 -5
l-1107 3 118 103 c65 56 168 147 228 203 137 125 396 356 479 429 35 30 106
95 159 143 52 49 104 95 115 103 22 15 157 30 422 44 102 5 289 17 415 25 127
8 316 20 420 26 105 5 226 14 270 18 117 12 173 12 180 1z"/>
</g>
</svg>
