<?xml version="1.0" standalone="no"?>
<!DOCTYPE svg PUBLIC "-//W3C//DTD SVG 20010904//EN"
 "http://www.w3.org/TR/2001/REC-SVG-20010904/DTD/svg10.dtd">
<svg version="1.0" xmlns="http://www.w3.org/2000/svg"
 width="360.000000pt" height="360.000000pt" viewBox="0 0 360.000000 360.000000"
 preserveAspectRatio="xMidYMid meet">

<g transform="translate(0.000000,360.000000) scale(0.100000,-0.100000)"
fill="#000000" stroke="none">
<path d="M445 2919 c-81 -20 -149 -92 -160 -173 -3 -22 -5 -464 -3 -981 3
-1037 -1 -965 65 -1031 59 -59 -26 -56 1454 -55 1133 0 1363 3 1391 14 44 19
104 87 117 134 14 50 15 1894 1 1942 -16 56 -59 109 -109 133 l-46 23 -1335 2
c-817 1 -1350 -2 -1375 -8z m2702 -165 c2 -6 -72 -74 -164 -150 -92 -76 -271
-224 -398 -329 -730 -605 -682 -570 -785 -570 -105 1 -62 -30 -755 545 -143
118 -333 275 -422 348 -89 73 -165 137 -168 143 -4 5 -3 14 0 19 9 15 2687 9
2692 -6z m-2432 -431 c121 -99 339 -280 485 -400 146 -120 265 -224 265 -231
0 -6 -182 -147 -405 -313 -223 -166 -452 -337 -509 -380 -57 -43 -107 -76
-112 -73 -10 6 -12 1607 -2 1617 3 4 18 -4 32 -16 15 -12 125 -104 246 -204z
m2454 -605 c-1 -434 -6 -791 -9 -793 -4 -3 -48 26 -97 63 -49 37 -279 209
-511 382 -232 173 -422 318 -422 323 0 5 12 19 27 31 15 11 147 120 293 240
146 121 312 258 369 305 57 47 156 129 220 182 106 89 117 95 124 76 4 -12 7
-376 6 -809z m-1479 -152 c76 -22 167 -20 244 5 l64 21 360 -268 c198 -148
423 -316 501 -373 78 -57 144 -108 147 -112 3 -5 -541 -9 -1208 -9 l-1213 1
26 22 c14 12 190 144 390 292 200 149 415 309 479 357 78 59 121 86 135 83 11
-2 45 -11 75 -19z"/>
</g>
</svg>
