<?xml version="1.0" standalone="no"?>
<!DOCTYPE svg PUBLIC "-//W3C//DTD SVG 20010904//EN"
 "http://www.w3.org/TR/2001/REC-SVG-20010904/DTD/svg10.dtd">
<svg version="1.0" xmlns="http://www.w3.org/2000/svg"
 width="2400.000000pt" height="2400.000000pt" viewBox="0 0 2400.000000 2400.000000"
 preserveAspectRatio="xMidYMid meet">

<g transform="translate(0.000000,2400.000000) scale(0.100000,-0.100000)"
fill="#000000" stroke="none">
<path d="M17090 16341 c-193 -42 -362 -132 -501 -271 -346 -342 -395 -862
-122 -1272 95 -141 148 -182 1640 -1253 l1421 -1020 -9101 -5 c-8361 -5 -9108
-7 -9172 -22 -346 -81 -611 -300 -734 -609 -54 -136 -65 -198 -65 -374 0 -135
3 -173 23 -245 28 -104 96 -251 155 -334 50 -70 178 -196 250 -245 68 -47 218
-116 311 -143 l80 -23 9108 -5 9107 -5 -1380 -1128 c-759 -621 -1403 -1154
-1431 -1184 -278 -306 -342 -747 -160 -1118 140 -284 401 -481 716 -540 120
-23 316 -16 430 15 95 25 248 96 318 146 43 31 2070 1687 4407 3600 404 330
763 630 797 666 313 328 356 842 102 1228 -113 172 158 -29 -3434 2551 -165
118 -460 330 -655 470 -195 140 -580 417 -855 614 -275 198 -524 374 -554 392
-192 116 -475 161 -701 114z"/>
</g>
</svg>
